<svg xmlns="http://www.w3.org/2000/svg" viewBox="0 0 128 128">
  <rect width="128" height="128" rx="16" fill="#1B2A4A"/>
  <path d="M39.41736227045076 113.99999999999999 L39.41736227045076 113.99999999999999 Q34.492487479131896 113.99999999999999 31.61268781302171 112.16360601001668 Q28.732888146911527 110.32721202003339 28.732888146911527 107.48914858096828 L28.732888146911527 107.48914858096828 Q28.732888146911527 104.81803005008346 30.736227045075132 102.48080133555925 Q32.73956594323874 100.14357262103505 35.95325542570952 98.26544240400666 Q39.16694490818031 96.38731218697828 42.964941569282146 94.92654424040066 Q46.76293823038398 93.46577629382303 50.39398998330552 92.5058430717863 Q54.02504173622705 91.54590984974958 56.779632721202006 91.21202003338897 L56.779632721202006 91.21202003338897 Q59.36727879799667 90.79465776293821 62.4974958263773 90.54424040066777 Q65.62771285475793 90.29382303839732 68.84140233722871 90.08514190317194 Q72.0550918196995 89.87646076794657 74.64273789649417 89.87646076794657 L74.64273789649417 89.87646076794657 Q77.73121869782972 84.6176961602671 79.69282136894824 79.94323873121868 Q81.65442404006679 75.26878130217027 83.15692821368948 69.17529215358931 L83.15692821368948 69.17529215358931 L83.4908180300501 67.8397328881469 Q81.90484140233724 69.34223706176961 79.02504173622705 71.47078464106843 Q76.14524207011686 73.59933222036727 72.34724540901503 75.7278797996661 Q68.5492487479132 77.85642737896494 64.25041736227045 79.27545909849749 Q59.951585976627726 80.69449081803005 55.44407345575961 80.69449081803005 L55.44407345575961 80.69449081803005 Q49.517529215358934 80.69449081803005 45.2186978297162 77.85642737896494 Q40.91986644407346 75.01836393989983 38.62437395659433 69.96828046744574 Q36.3288814691152 64.91819699499165 36.3288814691152 58.32387312186978 L36.3288814691152 58.32387312186978 Q36.3288814691152 54.40066777963271 37.330550918197005 49.93489148580967 Q38.33222036727881 45.46911519198664 40.58597662771287 40.79465776293823 L40.58597662771287 40.79465776293823 Q37.998330550918205 38.12353923205342 36.53756260434058 34.868113522537556 Q35.076794657762946 31.6126878130217 35.076794657762946 28.19031719532554 L35.076794657762946 28.19031719532554 Q35.076794657762946 25.185308848080133 36.3288814691152 22.22203672787979 Q37.58096828046745 19.25876460767946 40.252086811352264 16.5041736227045 L40.252086811352264 16.5041736227045 Q41.00333889816361 15.669449081803009 41.67111853088481 15.669449081803009 L41.67111853088481 15.669449081803009 Q42.005008347245415 15.669449081803009 42.005008347245415 16.00333889816359 L42.005008347245415 16.00333889816359 Q42.005008347245415 16.5041736227045 41.420701168614364 17.171953255425706 L41.420701168614364 17.171953255425706 Q39.50083472454091 19.509181969949907 38.582637729549255 22.096828046744577 Q37.6644407345576 24.684474123539225 37.6644407345576 27.272120200333887 L37.6644407345576 27.272120200333887 Q37.6644407345576 30.193656093489146 38.79131886477463 33.03171953255425 Q39.91819699499166 35.869782971619365 42.005008347245415 38.290484140233715 L42.005008347245415 38.290484140233715 Q44.175292153589325 33.699499165275455 47.97328881469116 29.35893155258764 Q51.77128547579299 25.018363939899828 56.86310517529216 21.55425709515859 Q61.95492487479133 18.090150250417352 67.96494156928215 16.045075125208683 Q73.97495826377296 14 80.48580968280467 14 L80.48580968280467 14 Q89.1669449081803 14 94.21702838063439 17.756260434056756 Q99.2671118530885 21.51252086811352 99.2671118530885 29.108514190317187 L99.2671118530885 29.108514190317187 Q99.2671118530885 32.69782971619365 97.30550918196997 36.28714524207011 Q95.34390651085141 39.87646076794657 91.37896494156928 42.88146911519198 Q87.41402337228715 45.88647746243739 81.52921535893157 47.72287145242069 Q75.64440734557596 49.559265442404 67.881469115192 49.726210350584296 L67.881469115192 49.726210350584296 Q61.78797996661102 49.80968280467445 55.86143572621036 48.18196994991652 Q49.934891485809686 46.55425709515859 45.84474123539233 43.88313856427378 L45.84474123539233 43.88313856427378 Q43.75792988313857 48.30717863105175 42.79799666110184 52.52253756260433 Q41.83806343906512 56.73789649415692 41.83806343906512 60.41068447412353 L41.83806343906512 60.41068447412353 Q41.83806343906512 68.84140233722871 45.969949916527554 73.26544240400666 Q50.10183639398999 77.68948247078463 57.03005008347246 77.68948247078463 L57.03005008347246 77.68948247078463 Q60.78631051752922 77.68948247078463 64.58430717863106 76.5626043405676 Q68.3823038397329 75.43572621035058 71.63772954924875 73.59933222036727 Q74.89315525876461 71.76293823038397 77.18864774624375 69.71786310517528 Q79.48414023372288 67.6727879799666 80.23539232053423 65.91986644407345 L80.23539232053423 65.91986644407345 Q82.15525876460768 61.57929883138563 84.03338898163607 59.868113522537556 Q85.91151919866445 58.156928213689476 87.41402337228715 58.156928213689476 L87.41402337228715 58.156928213689476 Q88.6661101836394 58.156928213689476 89.54257095158599 59.283806343906505 Q90.41903171953255 60.41068447412353 90.1686143572621 62.33055091819699 L90.1686143572621 62.33055091819699 Q89.3338898163606 69.25876460767945 86.37061769616028 75.76961602671118 Q83.40734557595994 82.2804674457429 78.73288814691153 89.87646076794657 L78.73288814691153 89.87646076794657 Q84.40901502504174 89.95993322203672 88.95826377295492 90.5025041736227 Q93.50751252086812 91.04507512520867 97.18030050083473 91.96327212020033 L97.18030050083473 91.96327212020033 Q98.18196994991652 92.21368948247077 98.55759599332222 92.58931552587646 Q98.93322203672787 92.96494156928213 98.93322203672787 93.21535893155257 L98.93322203672787 93.21535893155257 Q98.93322203672787 93.79966611018362 97.93155258764608 93.79966611018362 L97.93155258764608 93.79966611018362 Q97.43071786310517 93.79966611018362 96.51252086811353 93.54924874791318 L96.51252086811353 93.54924874791318 Q94.59265442404006 93.04841402337227 91.42070116861436 92.6727879799666 Q88.24874791318865 92.29716193656093 84.61769616026712 92.13021702838063 Q80.98664440734558 91.96327212020033 77.64774624373956 91.96327212020033 L77.64774624373956 91.96327212020033 Q74.14190317195326 96.97161936560934 69.34223706176962 101.02003338898163 Q64.54257095158599 105.06844741235392 59.15859766277129 107.98998330550917 Q53.7746243739566 110.91151919866442 48.641068447412366 112.45575959933221 Q43.50751252086812 113.99999999999999 39.41736227045076 113.99999999999999 Z M65.62771285475793 47.22203672787979 L65.62771285475793 47.22203672787979 Q71.30383973288815 47.22203672787979 76.64607679465777 45.719532554257086 Q81.98831385642738 44.21702838063439 86.24540901502505 41.54590984974958 Q90.50250417362271 38.874791318864766 93.04841402337229 35.32721202003338 Q95.59432387312188 31.779632721202 95.59432387312188 27.77295492487479 L95.59432387312188 27.77295492487479 Q95.59432387312188 24.100166944908175 93.5492487479132 21.470784641068448 Q91.50417362270451 18.841402337228708 88.3322203672788 17.422370617696146 Q85.16026711185309 16.00333889816359 81.57095158597663 16.00333889816359 L81.57095158597663 16.00333889816359 Q75.89482470784642 16.00333889816359 70.7195325542571 18.17362270450751 Q65.54424040066777 20.34390651085141 61.12020033388983 23.974958263772955 Q56.696160267111864 27.606010016694484 53.06510851419033 32.196994991652744 Q49.43405676126879 36.78797996661101 46.92988313856428 41.629382303839726 L46.92988313856428 41.629382303839726 Q50.35225375626044 44.21702838063439 55.23539232053423 45.719532554257086 Q60.11853088480802 47.22203672787979 65.62771285475793 47.22203672787979 Z M39.25041736227046 111.82971619365608 L39.25041736227046 111.82971619365608 Q42.505843071786316 111.82971619365608 46.92988313856428 110.53589315525875 Q51.35392320534224 109.24207011686143 56.195325542570956 106.73789649415691 Q61.03672787979967 104.23372287145241 65.50250417362271 100.5609348914858 Q69.96828046744575 96.88814691151919 73.30717863105176 92.13021702838063 L73.30717863105176 92.13021702838063 Q69.30050083472455 92.21368948247077 65.41903171953257 92.5058430717863 Q61.53756260434058 92.79799666110182 57.69782971619367 93.46577629382303 L57.69782971619367 93.46577629382303 Q55.611018363939905 93.79966611018362 52.56427378964942 94.71786310517528 Q49.517529215358934 95.63606010016693 46.26210350584308 97.05509181969948 Q43.00667779632722 98.47412353923204 40.12687813021704 100.2270450751252 Q37.247078464106856 101.97996661101836 35.45242070116862 103.98330550918196 Q33.65776293823039 105.98664440734557 33.65776293823039 108.07345575959931 L33.65776293823039 108.07345575959931 Q33.65776293823039 109.57595993322202 34.95158597662772 110.70283806343905 Q36.245409015025054 111.82971619365608 39.25041736227046 111.82971619365608 Z" fill="#C9A84C"/>
</svg>